<?xml version="1.0" encoding="UTF-8"?>
<!-- Generator: visioncortex VTracer 0.6.12 -->
<svg version="1.1" xmlns="http://www.w3.org/2000/svg" width="740" height="740">
<path d="M0 0 C22.21817876 62.8866379 26.2036805 137.81295499 -2.71142578 199.40429688 C-8.16554239 210.39106606 -14.8900337 220.79147252 -23 230 C-23.72960937 230.83789062 -24.45921875 231.67578125 -25.2109375 232.5390625 C-27.4411785 235.05854977 -29.70752131 237.53710697 -32 240 C-32.63550781 240.68964844 -33.27101563 241.37929688 -33.92578125 242.08984375 C-46.51550239 255.25300975 -64.8862287 267.10381533 -82.7578125 271.7109375 C-85 273 -85 273 -86.30078125 276.203125 C-86.65175373 277.54857565 -86.9881319 278.89788889 -87.3125 280.25 C-90.96467613 293.41416492 -97.87585265 303.8386494 -107 314 C-107.61230469 314.69480469 -108.22460938 315.38960938 -108.85546875 316.10546875 C-120.36586734 328.40122503 -136.57904759 337.61891625 -152 344 C-136.92474477 352.29802618 -112.02175066 349.68393867 -96.0078125 345.26171875 C-69.68456861 337.23230159 -48.30835155 321.31502307 -35 297 C-31.07401487 289.34451977 -28.06180498 281.64430274 -25.9375 273.3125 C-24.08153162 266.37038849 -24.08153162 266.37038849 -21.125 263.75 C-16.05166965 260.908935 -11.86420388 259.46689056 -6 260 C-4 262 -4 262 -3.5625 264.1875 C-4.03150338 267.20252172 -4.74308099 268.27703305 -6.52734375 270.67578125 C-6.75740112 270.98793579 -6.75740112 270.98793579 -7.92163086 272.56762695 C-8.27749268 273.04031006 -8.63335449 273.51299316 -9 274 C-8.01644531 274.31710937 -7.03289063 274.63421875 -6.01953125 274.9609375 C35.39806429 288.71107258 72.09889762 315.45794036 92 355 C98.43821518 368.81327102 98.43821518 368.81327102 98 376 C93.8443893 376 93.36062461 375.83119935 90.25 373.5625 C86.2163651 370.94810701 82.85730604 369.54551522 78 370 C70.55906772 372.05661084 65.47242229 377.65593094 61.74609375 384.203125 C57.49264487 393.18088425 56.67258297 402.23606241 56.375 412.0625 C56.33632813 413.11888672 56.29765625 414.17527344 56.2578125 415.26367188 C56.16446907 417.84228408 56.07868747 420.42090608 56 423 C55.00355469 422.84144531 54.00710938 422.68289063 52.98046875 422.51953125 C40.20333645 420.7125668 27.57852046 421.12836809 16.6875 428.75 C2.41267163 440.63091306 -1.34012565 455.52102964 -5 473 C-5.81984375 472.65066406 -6.6396875 472.30132813 -7.484375 471.94140625 C-8.56203125 471.48636719 -9.6396875 471.03132813 -10.75 470.5625 C-11.81734375 470.11003906 -12.8846875 469.65757812 -13.984375 469.19140625 C-23.37095166 465.48297894 -35.16343244 465.37977768 -44.5625 469.125 C-49.53111737 471.55515482 -53.90929973 474.27513471 -58 478 C-58.71671875 478.639375 -59.4334375 479.27875 -60.171875 479.9375 C-69.69693336 489.3968683 -74.48088212 502.57953137 -79 515 C-79.81082031 514.59007812 -80.62164063 514.18015625 -81.45703125 513.7578125 C-95.59771009 506.87678368 -107.93078904 505.14721427 -123.125 510.0625 C-129.95811143 512.70291165 -135.44204799 516.26612654 -141 521 C-141.71027344 521.53238281 -142.42054688 522.06476562 -143.15234375 522.61328125 C-145.15456288 524.37891431 -146.16707777 525.45363775 -147 528 C-146.37757308 531.3392977 -145.29933027 534.32874428 -144.1171875 537.51171875 C-142.20360968 543.48663131 -141.70810138 550.07349913 -143.6953125 556.11328125 C-145.31366806 558.96240301 -146.8889525 559.95983388 -149.9375 561.0625 C-153.50368637 560.98972069 -155.15897122 560.08899175 -158 558 C-158.27714844 558.63808594 -158.55429687 559.27617188 -158.83984375 559.93359375 C-159.20207031 560.75988281 -159.56429688 561.58617187 -159.9375 562.4375 C-160.29714844 563.26121094 -160.65679687 564.08492187 -161.02734375 564.93359375 C-162 567 -162 567 -163 568 C-167.07794091 568.39979813 -169.45896089 568.28134034 -173.125 566.375 C-176.25260687 563.79132476 -178.52572826 561.20199873 -181 558 C-181.53625 558.350625 -182.0725 558.70125 -182.625 559.0625 C-185.89694852 560.35405863 -187.64864034 560.02592643 -191 559 C-197.16143756 554.89237496 -198.36833508 547.90950842 -200 541 C-200 540.01 -200 539.02 -200 538 C-201.18335938 538.27714844 -202.36671875 538.55429687 -203.5859375 538.83984375 C-220.44467661 542.73183266 -220.44467661 542.73183266 -228 543 C-229.1240625 543.03996094 -230.248125 543.07992187 -231.40625 543.12109375 C-244.31646689 543.34782277 -256.66274057 541.8473782 -269 538 C-269.02578125 538.6290625 -269.0515625 539.258125 -269.078125 539.90625 C-269.5478636 546.99503249 -270.9216707 552.71644875 -275.875 558 C-278.75084836 559.35334041 -280.85932223 559.33411466 -284 559 C-284.99 558.34 -285.98 557.68 -287 557 C-287.53625 557.9075 -288.0725 558.815 -288.625 559.75 C-291.53253013 564.08058185 -295.03394731 566.43827066 -300.0625 567.875 C-303.34480314 568.01467247 -305.13866643 567.58962976 -308 566 C-310 563 -310 563 -310 559 C-310.495 559.33 -310.99 559.66 -311.5 560 C-315.25595542 561.50238217 -317.95046363 561.38567013 -322 561 C-324.86760144 558.3174051 -325.86026037 555.4432126 -326.23828125 551.5390625 C-326.39276041 545.4737227 -325.7775034 540.99011414 -323.5625 535.3125 C-321.70972561 529.79373785 -321.70972561 529.79373785 -322.94140625 526.42578125 C-330.45787798 516.1538512 -342.28360468 510.59876331 -354.29296875 507.38671875 C-367.6660837 505.47627376 -381.12867125 506.23576789 -393.1640625 512.69921875 C-396 514 -396 514 -399 513 C-399.96386719 511.13330078 -399.96386719 511.13330078 -400.796875 508.6953125 C-401.11229248 507.80650391 -401.42770996 506.91769531 -401.75268555 506.00195312 C-402.08179932 505.05255859 -402.41091309 504.10316406 -402.75 503.125 C-406.50650909 492.78742113 -410.4879817 483.39201589 -419 476 C-419.763125 475.319375 -420.52625 474.63875 -421.3125 473.9375 C-429.50048793 468.03453195 -436.97101697 466.24284499 -447 467 C-452.774222 468.19779999 -457.76645438 470.30393104 -463 473 C-463.10022461 472.44650879 -463.20044922 471.89301758 -463.30371094 471.32275391 C-466.28715282 455.06942257 -469.20778773 439.54606937 -482.875 428.5625 C-492.22252769 422.3247881 -500.80483189 420.98654268 -512 422 C-514.70465739 422.56921548 -517.33316552 423.26411852 -520 424 C-520.01458252 423.27522461 -520.02916504 422.55044922 -520.04418945 421.80371094 C-520.11963772 418.45199502 -520.21597166 415.10117254 -520.3125 411.75 C-520.3237793 411.18023437 -520.3237793 411.18023437 -520.38085938 408.296875 C-520.7398001 396.81077168 -522.17489849 385.89877823 -530 377 C-533.23636379 374.07886644 -536.5831027 371.5500597 -541 371 C-543.4375 371.70703125 -543.4375 371.70703125 -546 372.8125 C-546.845625 373.16957031 -547.69125 373.52664063 -548.5625 373.89453125 C-550.73699733 374.88072155 -552.87457383 375.91268707 -555 377 C-555.37015823 352.51667676 -536.20925782 328.93430816 -520.1171875 312.125 C-503.8278271 295.56024026 -482.94937285 282.63277063 -461 275 C-460.01 275 -459.02 275 -458 275 C-458.28875 274.48050781 -458.5775 273.96101563 -458.875 273.42578125 C-462.56239016 266.49912127 -462.56239016 266.49912127 -462 262 C-458.77467536 260.38733768 -455.49710112 260.5455031 -452 261 C-447.11093707 262.77784107 -444.33368107 265.38449744 -442 270 C-441.37654874 272.25486115 -440.81973893 274.52868763 -440.3125 276.8125 C-434.36777809 300.98770242 -417.38701176 320.82837551 -396.8125 334.125 C-374.35704974 347.57185198 -350.30672669 350.51263911 -325 345 C-323.33392772 344.66370837 -321.66752117 344.32903196 -320 344 C-320 343.34 -320 342.68 -320 342 C-320.84304688 341.9071875 -321.68609375 341.814375 -322.5546875 341.71875 C-326.4657247 340.90284201 -329.65415545 339.3998069 -333.125 337.5 C-333.77879639 337.14542725 -334.43259277 336.79085449 -335.10620117 336.42553711 C-358.31725806 323.50854584 -376.10012403 303.49659542 -384 278 C-384.37143222 276.006724 -384.71618392 274.00762535 -385 272 C-385.54164795 271.83709473 -386.0832959 271.67418945 -386.64135742 271.50634766 C-392.52011662 269.65414449 -397.87651329 267.26759978 -403.3125 264.375 C-404.14209229 263.93406006 -404.97168457 263.49312012 -405.82641602 263.03881836 C-417.61367877 256.63661115 -427.32699849 248.19288173 -437 239 C-437.64582031 238.41863281 -438.29164063 237.83726562 -438.95703125 237.23828125 C-469.45763637 208.88057578 -482.30839847 158.42645742 -484.11401367 118.47746277 C-484.17936105 115.8557949 -484.21619863 113.23566941 -484.23828125 110.61328125 C-484.2480751 109.64573914 -484.25786896 108.67819702 -484.26795959 107.68133545 C-484.56156955 71.11145785 -482.36265952 35.17498064 -468 1 C-461.04320471 1.47977899 -454.62147032 2.65533369 -447.9375 4.625 C-447.48189697 4.75825684 -447.48189697 4.75825684 -445.17626953 5.43261719 C-422.80773927 12.15606091 -402.59550265 22.93288379 -384 37 C-383.0409375 37.71414062 -382.081875 38.42828125 -381.09375 39.1640625 C-354.58649514 59.84291493 -331.68244822 90.70813026 -319 122 C-319 122.99 -319 123.98 -319 125 C-318.36578125 124.5875 -317.7315625 124.175 -317.078125 123.75 C-301.18621141 113.91632971 -282.675199 107.24267144 -264.19140625 104.41796875 C-256.01521394 103.15097797 -251.41494057 100.50632744 -245.26196289 95.27124023 C-236.30674935 87.69684743 -225.92343693 82.77935445 -214.1875 81.625 C-211 82 -211 82 -208.9375 83.4375 C-207.43426689 87.54633717 -208.58374952 90.96131443 -210 95 C-211.19492201 97.47100853 -212.51876501 99.67939851 -214 102 C-213.10023438 102.09023437 -212.20046875 102.18046875 -211.2734375 102.2734375 C-205.56598956 103.09533291 -200.11842824 104.919472 -194.625 106.625 C-193.4704834 106.98327881 -192.3159668 107.34155762 -191.12646484 107.71069336 C-177.21913371 112.1024311 -164.34822534 117.17231958 -152 125 C-151.90460938 124.33355469 -151.80921875 123.66710937 -151.7109375 122.98046875 C-146.3488687 100.50102647 -128.44768815 77.73102336 -113 61.15234375 C-111.15918281 59.17130806 -109.42275357 57.13562746 -107.6875 55.0625 C-83.21894539 27.17842632 -38.19153499 -0.26510908 0 0 Z M-465 6 C-468.97486048 17.98833082 -472.43571551 29.96116242 -474.8125 42.375 C-475.00674561 43.38159668 -475.20099121 44.38819336 -475.40112305 45.42529297 C-478.43838849 62.01086981 -479.37381939 78.16253509 -479.3125 95 C-479.31067719 96.03769531 -479.30885437 97.07539063 -479.30697632 98.14453125 C-479.26122034 113.61631202 -478.84483654 128.74958519 -476 144 C-475.82307617 144.97179199 -475.64615234 145.94358398 -475.46386719 146.94482422 C-473.02104381 159.99220123 -469.63291698 172.56326301 -465 185 C-464.61199219 186.06089844 -464.22398437 187.12179687 -463.82421875 188.21484375 C-449.61356179 224.59607892 -422.23426757 250.34506514 -387 266 C-385.21862243 259.27313918 -384.11879254 251.5635236 -387 245 C-390.6792853 241.17220334 -395.53106872 239.02427291 -400.1953125 236.6171875 C-407.25577694 232.96849111 -412.43604276 227.57186059 -418 222 C-418.721875 221.34902344 -419.44375 220.69804687 -420.1875 220.02734375 C-448.53888547 194.01952039 -460.32765866 149.95535078 -464 113 C-464.11214844 111.91203125 -464.22429687 110.8240625 -464.33984375 109.703125 C-466.24891831 87.84029849 -469.13108363 53.26216727 -459 33 C-451.82445472 38.38728243 -444.85048002 43.84474921 -438.25 49.9375 C-436.27210442 51.75057094 -434.24803183 53.47039014 -432.1875 55.1875 C-400.36752938 83.10200139 -380.18825829 122.8293435 -369 163 C-368.82919922 163.61037109 -368.82919922 163.61037109 -367.96484375 166.69921875 C-367.29582751 169.12945914 -366.63762264 171.56137305 -366 174 C-363.46031787 170.8559084 -360.98557209 167.6715636 -358.55029297 164.44604492 C-353.66761488 158.00225811 -348.5515409 151.88646019 -343 146 C-342.36707031 145.31421875 -341.73414063 144.6284375 -341.08203125 143.921875 C-335.60283949 138.18284528 -329.42276588 133.62439144 -323 129 C-323.61440318 123.77757293 -326.0334801 119.4397366 -328.375 114.8125 C-328.81835693 113.93335938 -329.26171387 113.05421875 -329.71850586 112.1484375 C-336.6285483 98.65976373 -344.48265628 85.81184764 -354 74 C-354.41717285 73.48131348 -354.8343457 72.96262695 -355.26416016 72.42822266 C-383.08827299 38.0681752 -421.31749399 14.27881085 -465 6 Z M-21.6875 8.9375 C-22.78876221 9.24888916 -23.89002441 9.56027832 -25.0246582 9.88110352 C-64.19708658 21.39442067 -99.25366485 47.9745566 -123 81 C-123.41411133 81.56976563 -123.82822266 82.13953125 -124.25488281 82.7265625 C-133.65341095 95.79513164 -143.61293862 111.40853452 -148 127 C-146.67860598 130.96418206 -144.82943866 131.76944312 -141.4375 134.1875 C-128.09150314 144.10349485 -117.05847192 156.10127163 -108 170 C-107.34 170.99 -106.68 171.98 -106 173 C-105.34 173 -104.68 173 -104 173 C-103.8040625 171.81148437 -103.608125 170.62296875 -103.40625 169.3984375 C-96.57153445 130.50016396 -75.65078036 94.8130409 -48.93359375 66.0859375 C-47.09765623 64.10535035 -45.36157838 62.06754978 -43.625 60 C-34.25858589 49.35924384 -21.76805602 38.38402801 -9 32 C-8.3496741 36.1243045 -7.70557044 40.2495585 -7.0625 44.375 C-6.97129883 44.95314453 -6.97129883 44.95314453 -6.50976562 47.87890625 C-2.41061292 74.26254366 -1.79925266 102.72303564 -7 129 C-7.19335938 129.98645508 -7.38671875 130.97291016 -7.5859375 131.98925781 C-14.67149777 166.8375303 -28.86258246 199.49879928 -54 225 C-54.77730469 225.79019531 -55.55460937 226.58039063 -56.35546875 227.39453125 C-62.97063143 233.72159639 -70.51881661 238.34431106 -78.34936523 242.99780273 C-79.92657525 243.95541952 -81.46473274 244.9764885 -83 246 C-83.43237305 248.06298828 -83.43237305 248.06298828 -83.51171875 250.5703125 C-83.52944336 251.01826172 -83.52944336 251.01826172 -83.61914062 253.28515625 C-83.64169922 254.22230469 -83.66425781 255.15945313 -83.6875 256.125 C-83.72166016 257.06988281 -83.75582031 258.01476562 -83.79101562 258.98828125 C-83.87364112 261.32540253 -83.94273988 263.66214191 -84 266 C-78.97400877 265.4406934 -74.89414553 263.7787324 -70.4375 261.5 C-69.73641113 261.14325195 -69.03532227 260.78650391 -68.31298828 260.41894531 C-35.41693855 243.27330633 -10.50354009 212.11939868 1 177 C8.9515193 151.58542975 12.22725188 125.12743163 12.1875 98.5625 C12.18719788 98.18808273 12.18719788 98.18808273 12.18566895 96.29330444 C12.1590513 84.10063759 11.73628731 72.08559767 10 60 C9.93554688 59.54923096 9.93554688 59.54923096 9.609375 57.26806641 C7.03168538 39.90147925 3.45389485 22.37412491 -3 6 C-9.60314086 5.56227416 -15.3608665 7.14444678 -21.6875 8.9375 Z M-11 37 C-20.06889537 44.30727767 -28.98466405 51.53001264 -37 60 C-39.44414647 62.46376241 -41.90426064 64.90707191 -44.39453125 67.32421875 C-50.09451751 72.89528772 -55.23639788 78.6116693 -60 85 C-60.44601562 85.5966748 -60.89203125 86.19334961 -61.3515625 86.80810547 C-69.19779863 97.38426533 -75.9538633 108.30517637 -82 120 C-82.16153564 120.30744141 -82.16153564 120.30744141 -82.97900391 121.86328125 C-91.27882858 137.83435722 -100 158.70329017 -100 177 C-98.02 177 -96.04 177 -94 177 C-94.969375 177.45375 -95.93875 177.9075 -96.9375 178.375 C-100 180 -100 180 -101 182 C-100.30322266 183.92358398 -100.30322266 183.92358398 -99.1640625 186.24609375 C-98.75929688 187.08333984 -98.35453125 187.92058594 -97.9375 188.78320312 C-97.7209375 189.22116211 -97.7209375 189.22116211 -96.625 191.4375 C-95.78246859 193.16468938 -94.94126566 194.8925276 -94.1015625 196.62109375 C-93.72338379 197.3886499 -93.34520508 198.15620605 -92.95556641 198.94702148 C-92 201 -92 201 -91 204 C-90.34 204 -89.68 204 -89 204 C-88.72027344 203.24976563 -88.44054687 202.49953125 -88.15234375 201.7265625 C-85.2658543 194.35719716 -81.78795588 188.27894215 -77 182 C-76.4121875 181.20851562 -75.824375 180.41703125 -75.21875 179.6015625 C-73.82340191 177.72574078 -72.41762284 175.85900725 -71 174 C-71.165 173.67 -71.165 173.67 -72 172 C-70.68 172.66 -69.36 173.32 -68 174 C-69.67255927 177.62533789 -71.84238579 180.81244864 -74.0625 184.125 C-77.67795063 189.69389999 -81.02218619 195.37974506 -84.125 201.25 C-84.52726807 201.96945801 -84.92953613 202.68891602 -85.34399414 203.43017578 C-88.35763072 209.3078026 -88.1516507 213.60142873 -87 220 C-86.92201172 220.50176758 -86.92201172 220.50176758 -86.52734375 223.04101562 C-86.02508701 226.2409404 -85.486348 229.43276037 -84.9375 232.625 C-84.75123047 233.72457031 -84.56496094 234.82414063 -84.37304688 235.95703125 C-83.91835544 238.63854486 -83.46062096 241.31949973 -83 244 C-48.64722781 227.58738602 -28.36501077 195.64260154 -15.85693359 160.7902832 C-3.47187956 124.07618428 -0.88412202 84.13067373 -7.5 46 C-7.61835205 45.30696777 -7.7367041 44.61393555 -7.85864258 43.89990234 C-8.44137693 40.82543538 -8.73866482 39.26133518 -11 37 Z M-459 38 C-473.55134363 83.23569869 -464.24142894 143.99970931 -443.04467773 185.36108398 C-429.91321462 210.25216001 -412.67337405 230.71800892 -387 243 C-386.1535391 238.52321239 -385.32522463 234.0432467 -384.5 229.5625 C-384.38076172 228.9324707 -384.38076172 228.9324707 -383.77734375 225.74414062 C-380.92723412 210.14996937 -382.29361139 199.95452982 -391.12109375 186.5703125 C-392.91346994 184.11837168 -394.81324154 181.91436848 -396.875 179.6875 C-399.73930122 176.57970114 -400.89106685 174.3573258 -401 170 C-398.69 170.33 -396.38 170.66 -394 171 C-394.99 171.33 -395.98 171.66 -397 172 C-395.38183213 175.81489854 -392.91030329 178.5307198 -390.1875 181.625 C-386.32234205 186.11609727 -383.37007262 190.49494769 -380.9375 195.94140625 C-380 198 -380 198 -378 201 C-376.87247351 198.77208002 -375.74791861 196.54274113 -374.625 194.3125 C-374.30789063 193.68666016 -373.99078125 193.06082031 -373.6640625 192.41601562 C-368.95597733 183.04888785 -368.95597733 183.04888785 -369.08984375 179.859375 C-370.373604 177.23675749 -371.98632082 176.5562317 -374.5625 175.25 C-375.38878906 174.82203125 -376.21507812 174.3940625 -377.06640625 173.953125 C-377.70449219 173.63859375 -378.34257812 173.3240625 -379 173 C-376.36 173.99 -373.72 174.98 -371 176 C-371.46229129 169.12920713 -372.6274793 162.87694294 -374.6875 156.3125 C-374.9551416 155.4452832 -375.2227832 154.57806641 -375.49853516 153.68457031 C-379.54756692 140.81401006 -384.85388585 128.73145832 -391.07568359 116.77929688 C-391.88119704 115.22869413 -392.67053756 113.66971101 -393.45703125 112.109375 C-408.11175338 83.89797907 -432.2059349 56.60094891 -458 38 C-458.33 38 -458.66 38 -459 38 Z M-249 105 C-249.33 105.99 -249.66 106.98 -250 108 C-251.12535156 108.09796875 -252.25070312 108.1959375 -253.41015625 108.296875 C-263.65199202 109.2624504 -273.16632845 110.86402449 -283 114 C-283.63083496 114.20077148 -284.26166992 114.40154297 -284.91162109 114.60839844 C-301.54549738 120.0318527 -316.72379488 128.61860692 -330 140 C-330.53963379 140.46132324 -331.07926758 140.92264648 -331.63525391 141.39794922 C-355.71381879 162.24344969 -371.10927669 188.19987666 -379 219 C-379.3403125 220.25296875 -379.680625 221.5059375 -380.03125 222.796875 C-384.22596524 240.89629448 -384.45651109 262.44386953 -378 280 C-377.77505859 280.61891113 -377.55011719 281.23782227 -377.31835938 281.87548828 C-374.5570878 289.31304554 -371.25996116 295.99394505 -366 302 C-365 299 -365 299 -364.6875 295.1875 C-364.01315581 289.61905172 -361.49832221 286.35562486 -357.375 282.625 C-352.23323978 280.14933767 -347.4310711 280.01690373 -341.94140625 281.58984375 C-337.33161428 283.74108 -335.42540636 286.967594 -333.66015625 291.63671875 C-332.18966722 296.90089546 -332.42424825 301.24522286 -334.625 306.3125 C-336.78664485 310.13290704 -338.69243432 311.72368424 -343 313 C-347.82209432 313.3967546 -352.33026722 313.33420937 -357 312 C-336.64360052 338.57641044 -297.74264465 347.92900824 -266.38671875 352.45703125 C-255.98913639 353.79827325 -245.66532206 354.24117449 -235.1875 354.25 C-234.82447784 354.25033737 -234.82447784 354.25033737 -232.98736572 354.25204468 C-220.44683233 354.23364167 -208.33882319 353.36178141 -196 351 C-195.05479492 350.82307617 -194.10958984 350.64615234 -193.13574219 350.46386719 C-165.483381 345.1745652 -136.12468711 335.87004589 -116 315 C-116 314.67 -116 314.34 -116 314 C-116.66386719 313.89042969 -117.32773437 313.78085937 -118.01171875 313.66796875 C-129.07485712 311.68144901 -129.07485712 311.68144901 -132.75 306.5625 C-135.20866531 301.5222361 -136.11205011 296.39969605 -134.31640625 290.91015625 C-132.14379109 286.06910088 -129.78632185 283.54591588 -125 281 C-119.90365226 279.30121742 -115.64495653 279.45246865 -110.75 281.625 C-106.8831139 283.77908742 -105.35819456 285.68573494 -104 290 C-103.50174696 293.32833032 -103.19251986 296.64086041 -103 300 C-99.82501316 297.3364852 -98.27137532 293.93673157 -96.5625 290.25 C-96.25683105 289.59257812 -95.95116211 288.93515625 -95.63623047 288.2578125 C-82.66596379 259.33418654 -86.86177668 227.53707175 -97.5625 198.74609375 C-110.94210866 163.95990014 -138.45745223 135.90313824 -172 120 C-185.27587864 114.21552898 -199.34364059 109.10672302 -214 110 C-214 109.34 -214 108.68 -214 108 C-216.31 108.33 -218.62 108.66 -221 109 C-219.75528669 102.52749081 -217.2754147 97.33156349 -214.14453125 91.5390625 C-213.76683594 90.70117188 -213.38914062 89.86328125 -213 89 C-213.33 88.34 -213.66 87.68 -214 87 C-227.03950827 87 -239.99167537 96.40991902 -249 105 Z M-360 285 C-363.54401017 289.61220478 -364.75195746 294.19918531 -364 300 C-362.11409369 305.43584759 -358.6320232 308.76811108 -354 312 C-349.92397803 313.35867399 -346.21249159 313.83421814 -342.09375 312.28125 C-338.03606655 310.14924683 -335.97528752 308.06711117 -334 304 C-333.1753427 298.47999662 -333.25174944 293.5519271 -335.6875 288.5 C-340.07609036 283.75557798 -343.11404817 281.27289937 -349.65625 280.84765625 C-353.76272325 281.11457701 -356.83078044 282.38163801 -360 285 Z M-130 285 C-133.7628359 290.19011849 -134.43874835 294.63814888 -134 301 C-132.15512666 306.12464816 -129.50397003 308.96848171 -125 312 C-120.54844965 313.37593374 -118.673856 313.29045517 -114.375 311.4375 C-109.87552982 308.51537218 -105.67196315 304.16788611 -104 299 C-103.54010817 294.2477844 -103.47921149 292.00300009 -105.6875 287.75 C-111.12771372 281.28055666 -111.12771372 281.28055666 -115.5546875 280.6171875 C-121.50005433 280.37550592 -125.46538287 280.80547916 -130 285 Z M-455 267 C-454.835 268.65 -454.835 268.65 -454 277 C-454.63808594 277.28230469 -454.63808594 277.28230469 -457.8671875 278.7109375 C-477.07490117 287.26020904 -493.9667672 296.27618981 -510 310 C-510.65484375 310.53238281 -511.3096875 311.06476563 -511.984375 311.61328125 C-516.51318288 315.33051073 -520.29202394 319.47134513 -524 324 C-524.38736328 324.46857422 -524.38736328 324.46857422 -526.34765625 326.83984375 C-534.38089405 336.78493568 -541.55890173 347.95187201 -546 360 C-545.67 360.99 -545.34 361.98 -545 363 C-544.46632813 362.06800781 -543.93265625 361.13601563 -543.3828125 360.17578125 C-524.95040836 328.44505552 -498.14586924 302.16599871 -462.1875 291.9375 C-461.42848389 291.7211792 -460.66946777 291.5048584 -459.88745117 291.28198242 C-456.23148757 290.32071435 -453.58629584 289.7158946 -450 291 C-448.7265625 292.86328125 -448.7265625 292.86328125 -447.625 295.3125 C-447.41294922 295.76496094 -447.41294922 295.76496094 -446.33984375 298.0546875 C-445.89769531 299.02664063 -445.45554687 299.99859375 -445 301 C-441.0977516 309.38260766 -436.60065245 316.64599014 -431 324 C-430.34 324.99 -429.68 325.98 -429 327 C-429.39832031 326.4946875 -429.79664063 325.989375 -430.20703125 325.46875 C-430.73683594 324.8190625 -431.26664062 324.169375 -431.8125 323.5 C-432.33457031 322.8503125 -432.85664063 322.200625 -433.39453125 321.53125 C-435 320 -435 320 -438 320 C-438 318.68 -438 317.36 -438 316 C-439.16086922 313.55151654 -440.36128024 311.22986749 -441.6875 308.875 C-442.42160325 307.53832576 -443.15467371 306.2010838 -443.88671875 304.86328125 C-444.24685059 304.20924316 -444.60698242 303.55520508 -444.97802734 302.88134766 C-447.09810175 298.97850642 -449.04786265 294.98874218 -451 291 C-475.69701898 293.42236827 -496.40204081 307.33839545 -514 324 C-514.44794922 324.41572266 -514.44794922 324.41572266 -516.71484375 326.51953125 C-527.30493071 336.6640325 -536.13985889 349.02705159 -543 362 C-543 362.99 -543 363.98 -543 365 C-542.3709375 365.14695312 -541.741875 365.29390625 -541.09375 365.4453125 C-532.61954968 367.66596138 -526.70249659 371.00816132 -521.75 378.375 C-516.65687663 387.5759286 -514.72587061 398.55639009 -514.17578125 408.9609375 C-514 411 -514 411 -513 413 C-513.33 413.99 -513.66 414.98 -514 416 C-513.03320312 415.96519531 -512.06640625 415.93039062 -511.0703125 415.89453125 C-496.71402256 415.59603413 -485.71244766 418.61506239 -474.875 428.5 C-466.51200297 437.38780048 -461.94750616 448.3263243 -459 460 C-456.86625732 457.86625732 -456.30993229 456.55892643 -455.27929688 453.7668457 C-454.95100388 452.88489029 -454.62271088 452.00293488 -454.2844696 451.09425354 C-453.93278214 450.13115768 -453.58109467 449.16806183 -453.21875 448.17578125 C-453.0338224 447.67532036 -453.0338224 447.67532036 -452.09797668 445.14268494 C-450.8914635 441.86854398 -449.69467755 438.59097688 -448.5 435.3125 C-448.0926059 434.19766235 -447.68521179 433.08282471 -447.26547241 431.9342041 C-438.89465164 408.99955489 -430.80730141 386.09707304 -424.9375 362.375 C-424.64979736 361.2190332 -424.36209473 360.06306641 -424.06567383 358.87207031 C-422.32144758 351.46302502 -420.5089797 343.64694881 -421 336 C-422.49194336 333.63037109 -422.49194336 333.63037109 -424 332 C-423.21238281 332.70125 -422.42476563 333.4025 -421.61328125 334.125 C-414.19138916 340.63167505 -406.6551817 346.18017133 -398 351 C-396.91203125 351.60585938 -395.8240625 352.21171875 -394.703125 352.8359375 C-377.41032059 361.96048176 -358.35733365 366.78334388 -339 369 C-366.10039474 369 -396.98960118 357.14896637 -417 339 C-417.66 339 -418.32 339 -419 339 C-419.17950195 339.83096191 -419.35900391 340.66192383 -419.54394531 341.51806641 C-427.14386242 376.24770006 -438.1876359 409.44396716 -450.47631836 442.7800293 C-450.65587067 443.26836746 -450.65587067 443.26836746 -451.56451416 445.73965454 C-452.23990346 447.57369983 -452.91862115 449.40652418 -453.60125732 451.23788452 C-455.03775153 455.13571522 -456.37796689 458.87157839 -457 463 C-456.16726563 462.84144531 -455.33453125 462.68289063 -454.4765625 462.51953125 C-441.92979469 460.64456483 -429.44850349 461.24416133 -418.75 468.6875 C-417.4709001 469.7578212 -416.2209012 470.86374111 -415 472 C-414.67257812 472.30099609 -414.67257812 472.30099609 -413.015625 473.82421875 C-407.30402014 479.63544463 -404.07390191 486.32958015 -400.6640625 493.62109375 C-399 497 -399 497 -397 499 C-395.76384078 496.52768156 -395.58614297 494.41955372 -395.23828125 491.671875 C-390.00837442 452.31191945 -377.01193436 407.01193436 -348 378 C-348.72703125 378.98355469 -349.4540625 379.96710938 -350.203125 380.98046875 C-377.64365793 418.6415058 -392.18224071 459.61006052 -395 506 C-394.34 506.33 -393.68 506.66 -393 507 C-392.34 506.67 -391.68 506.34 -391 506 C-390.33325195 503.34570312 -390.33325195 503.34570312 -389.73828125 499.78125 C-389.50853573 498.45564604 -389.27828925 497.13012884 -389.04760742 495.8046875 C-388.92839935 495.10311523 -388.80919128 494.40154297 -388.68637085 493.67871094 C-382.67372338 458.6403526 -372.11306469 424.63680062 -352 395 C-352.30550781 395.53882813 -352.61101562 396.07765625 -352.92578125 396.6328125 C-354.65278445 399.73655346 -356.33426464 402.8631067 -358 406 C-358.39687012 406.74620605 -358.79374023 407.49241211 -359.20263672 408.26123047 C-374.97655142 438.18343559 -385.42191812 469.29787636 -389 503 C-386.07710395 504.46144803 -384.36998843 503.41859439 -381.25 502.5625 C-365.31264821 498.78372065 -349.31998046 501.41197467 -334.90625 509.07421875 C-329.37539342 512.73915463 -324.68703348 517.32958721 -320 522 C-318.0625 521.3125 -318.0625 521.3125 -316 520 C-315.03193573 517.12543869 -314.76612102 515.59131667 -315.89282227 512.74267578 C-316.36260498 511.9845459 -316.8323877 511.22641602 -317.31640625 510.4453125 C-317.83066162 509.59130859 -318.34491699 508.73730469 -318.87475586 507.85742188 C-319.43171143 506.95572266 -319.98866699 506.05402344 -320.5625 505.125 C-339.47633716 473.15363036 -343.56189159 436.65392872 -334.74609375 400.64453125 C-330.4334024 384.26205235 -324.51430866 368.35383115 -315.70581055 353.84643555 C-314.75173986 352.26118792 -313.86813761 350.63389045 -313 349 C-313.33 348.34 -313.66 347.68 -314 347 C-314.57443848 347.14622803 -315.14887695 347.29245605 -315.74072266 347.44311523 C-318.36818106 348.11043567 -320.99657526 348.7739964 -323.625 349.4375 C-324.52863281 349.66759766 -325.43226563 349.89769531 -326.36328125 350.13476562 C-353.02739225 356.84945051 -377.65526115 351.46723626 -401.06640625 337.5546875 C-422.57701615 324.07137609 -438.74487252 301.84167539 -445.125 277.3125 C-445.37507813 276.19488281 -445.62515625 275.07726562 -445.8828125 273.92578125 C-447.25057791 270.34376624 -448.77580423 269.01389736 -452 267 C-452.99 267 -453.98 267 -455 267 Z M-19 269 C-20.24647461 271.70069498 -21.14076934 274.16834822 -22 277 C-27.13696404 293.9182638 -34.41159589 307.59100718 -46 321 C-46.65613281 321.75925781 -47.31226563 322.51851563 -47.98828125 323.30078125 C-64.00451722 340.41448949 -88.9766164 351.72485511 -112.25097656 353.20703125 C-115.73248688 353.30343304 -119.20470762 353.32819897 -122.6875 353.3125 C-123.9161377 353.30976074 -125.14477539 353.30702148 -126.41064453 353.30419922 C-136.69059051 353.18625707 -146.42101222 352.33343409 -156.171875 348.875 C-159.74333358 347.77001834 -162.37456719 348.27491344 -166 349 C-164.69424194 353.36178756 -162.94169941 357.30311918 -160.92871094 361.36645508 C-148.01964611 387.47068042 -141.54046878 416.08593293 -141.6875 445.1875 C-141.68965515 445.95724152 -141.6918103 446.72698303 -141.69403076 447.52005005 C-141.79180189 469.30973154 -144.71671503 491.32124166 -155.21484375 510.80859375 C-156.21947835 513.6125739 -155.90255717 515.18997664 -155 518 C-152.9375 520.3125 -152.9375 520.3125 -151 522 C-147.98749388 520.66904363 -146.16359423 519.27471531 -144 516.8125 C-134.95475816 507.51492309 -122.28138668 502.4390535 -109.44921875 501.83203125 C-102.2444649 501.79462339 -95.97618127 502.28454559 -89 504 C-86.76171875 503.55859375 -86.76171875 503.55859375 -85 503 C-89.81838617 465.05412758 -97.38790562 426.85052542 -118 394 C-108.71387202 406.66290179 -102.58784658 421.06654459 -98 436 C-97.73364746 436.86657227 -97.46729492 437.73314453 -97.19287109 438.62597656 C-90.85742812 459.71949223 -87.02217774 481.37508354 -83 503 C-81 501 -81 501 -80.80126953 498.78295898 C-80.89245991 495.66637772 -80.98820887 492.55250574 -81.125 489.4375 C-81.17575684 488.27234863 -81.22651367 487.10719727 -81.27880859 485.90673828 C-82.70622295 458.69045984 -88.88452519 432.45607825 -101 408 C-101.31018066 407.35804688 -101.62036133 406.71609375 -101.93994141 406.0546875 C-107.19181834 395.25653969 -113.90454306 385.6616472 -121 376 C-120.67 376 -120.34 376 -120 376 C-92.1895302 410.56444104 -80.93074066 453.16211511 -80 497 C-79.34 497 -78.68 497 -78 497 C-77.86013672 496.69126953 -77.86013672 496.69126953 -77.15234375 495.12890625 C-69.44694934 478.85095085 -57.46044883 468.20576158 -40.55859375 462.12109375 C-30.74961089 459.53788095 -20.73425329 460.86733016 -11 463 C-11.2902002 462.14510986 -11.58040039 461.29021973 -11.87939453 460.40942383 C-25.4535068 420.31370655 -37.9775134 380.14314631 -48 339 C-51.07487471 340.46651666 -53.65510064 342.20080569 -56.36254883 344.2746582 C-74.05148835 357.67536997 -97.59718837 367.3012603 -120 367 C-119.443125 366.92072266 -119.443125 366.92072266 -116.625 366.51953125 C-89.42194914 362.44718228 -65.73113227 352.31360407 -45 334 C-44.31679688 333.40058594 -43.63359375 332.80117188 -42.9296875 332.18359375 C-31.35059241 321.33112204 -24.01752029 308.02381209 -17.76513672 293.61962891 C-17 292 -17 292 -16 291 C-10.15581399 290.69037425 -5.22735254 291.38565682 0.375 293 C1.14884033 293.22147705 1.92268066 293.4429541 2.7199707 293.67114258 C21.72567593 299.3599904 37.99276675 309.12638298 53 322 C53.93070313 322.78503906 54.86140625 323.57007813 55.8203125 324.37890625 C61.79273507 329.61062367 67.03736936 335.16118089 72.0625 341.3125 C72.3366272 341.64733398 72.3366272 341.64733398 73.72387695 343.34179688 C76.68015655 347.05113033 79.04683779 350.64086635 81 355 C80.40574219 354.20078125 79.81148437 353.4015625 79.19921875 352.578125 C73.21685037 344.6187298 66.86011857 337.21219308 60 330 C59.40832031 329.35546875 58.81664062 328.7109375 58.20703125 328.046875 C39.75703428 308.54910043 11.75196999 293.83326327 -15 291 C-16.58475045 293.99925342 -18.16753521 296.99954008 -19.75 300 C-20.1934375 300.83917969 -20.636875 301.67835938 -21.09375 302.54296875 C-23.79369246 307.66491841 -26.42985454 312.81166899 -29 318 C-28.73896484 318.17015625 -28.73896484 318.17015625 -27.41796875 319.03125 C-15.29026186 327.01727065 -4.15033904 335.57532747 6 346 C6.24169922 346.21914063 6.24169922 346.21914063 7.46484375 347.328125 C26.74631616 365.29392046 38.09518183 391.50208119 49 415 C49.33 415 49.66 415 50 415 C50.04898438 414.38962891 50.04898438 414.38962891 50.296875 411.30078125 C51.6338397 396.03761908 53.66420817 381.65312815 65.3125 370.625 C71.54446664 365.68335244 78.23714709 364.57657166 86 365 C86 364.01 86 363.02 86 362 C87.32 363.32 88.64 364.64 90 366 C89.38759972 361.56219525 87.66915331 357.95849069 85.5625 354.0625 C85.20833008 353.40717285 84.85416016 352.7518457 84.48925781 352.07666016 C63.82342677 314.75090722 27.20618697 290.19828427 -13 278 C-13.95064958 273.25340001 -13.83196187 270.52602343 -12 266 C-15.14167226 266 -16.53019987 267.07235112 -19 269 Z M-33.5234375 322.4140625 C-34.48235304 323.47686055 -35.43256171 324.5475638 -36.375 325.625 C-36.84421875 326.14707031 -37.3134375 326.66914063 -37.796875 327.20703125 C-38.74221941 328.26466796 -39.67658276 329.33221981 -40.59985352 330.40917969 C-42 332 -42 332 -43.50756836 333.47363281 C-44.92578125 334.9296875 -44.92578125 334.9296875 -47 338 C-46.91168291 340.90465097 -46.60626971 342.77850384 -45.8125 345.5 C-45.61325928 346.27150391 -45.41401855 347.04300781 -45.20874023 347.83789062 C-44.75078147 349.59337106 -44.278546 351.34516615 -43.79492188 353.09375 C-42.95133979 356.17790268 -42.16784958 359.27348624 -41.390625 362.375 C-34.16914684 390.77788399 -25.27518745 418.77134017 -15.8125 446.5 C-15.58025726 447.18511658 -15.34801453 447.87023315 -15.10873413 448.57611084 C-14.46098432 450.48021423 -13.80304047 452.3808408 -13.14453125 454.28125 C-12.77690674 455.34408203 -12.40928223 456.40691406 -12.03051758 457.50195312 C-11 460 -11 460 -9 462 C-8.85433594 461.52240234 -8.85433594 461.52240234 -8.1171875 459.10546875 C-3.18813921 443.37255124 3.42744197 430.19647182 18.08984375 421.50390625 C27.49134644 416.64541157 36.4919728 415.31088838 47 415 C45.05846316 408.75993938 42.74360594 402.83805705 39.9375 396.9375 C39.54828369 396.11894531 39.15906738 395.30039062 38.75805664 394.45703125 C32.79250347 382.18639292 25.31929318 370.80192811 17 360 C16.32710937 359.12214844 15.65421875 358.24429688 14.9609375 357.33984375 C3.46059064 342.80758726 -11.03334616 328.05752287 -28 320 C-31 320 -31 320 -33.5234375 322.4140625 Z M-306 348 C-329.25787739 376.62507986 -337.8494538 415.96138533 -334.25 452.125 C-333.42427221 459.48478128 -331.70447109 466.08857389 -329 473 C-328.41649275 474.68743987 -327.83316259 476.37494099 -327.25 478.0625 C-322.80834829 490.09343061 -318.23444014 502.34016207 -311 513 C-310.32453125 512.65066406 -309.6490625 512.30132813 -308.953125 511.94140625 C-308.06109375 511.48636719 -307.1690625 511.03132812 -306.25 510.5625 C-305.80914062 510.33626953 -305.80914062 510.33626953 -303.578125 509.19140625 C-297.43105991 506.35071708 -290.80359804 505.82204055 -284.30078125 507.8359375 C-278.1573744 510.57246252 -274.51417786 513.72453224 -272 520 C-271.45213429 522.26934571 -270.91082891 524.5402821 -270.375 526.8125 C-268.68134887 532.5195112 -268.68134887 532.5195112 -265.97265625 534.4296875 C-262.96230609 535.32954564 -260.12946187 535.68914943 -257 536 C-255.56194227 536.20577471 -254.12447237 536.41568417 -252.6875 536.62890625 C-234.47696222 539.13433178 -217.83358874 537.00231898 -200 533 C-199.90513306 532.70561035 -199.90513306 532.70561035 -199.42504883 531.21582031 C-193.83563712 514.11715077 -193.83563712 514.11715077 -186 509 C-179.61918183 506.08701779 -173.73234236 506.25406529 -167.25 508.5 C-166.53328125 508.7784375 -165.8165625 509.056875 -165.078125 509.34375 C-163 510 -163 510 -159 510 C-155.60511253 502.09026218 -152.58165684 494.16751833 -150.25 485.875 C-150.05188721 485.18486816 -149.85377441 484.49473633 -149.6496582 483.78369141 C-146.26883943 471.33777248 -145.59114442 459.00126501 -145.625 446.1875 C-145.62543808 445.78123383 -145.62543808 445.78123383 -145.62765503 443.72528076 C-145.73010124 414.80850728 -152.33843513 388.00177411 -165 362 C-165.30921387 361.36336426 -165.61842773 360.72672852 -165.93701172 360.07080078 C-167.58662184 356.69396232 -169.27233398 353.33753663 -171 350 C-172.16273438 350.25394531 -173.32546875 350.50789063 -174.5234375 350.76953125 C-182.84371416 352.56640262 -191.16684362 354.27862136 -199.5625 355.6875 C-200.2622998 355.80649658 -200.96209961 355.92549316 -201.68310547 356.0480957 C-212.48447363 357.81436517 -223.1922619 358.24110105 -234.125 358.25 C-234.87366333 358.25067474 -235.62232666 358.25134949 -236.39367676 358.25204468 C-257.53242194 358.22196534 -277.51183271 355.13488975 -298 350 C-298.79148437 349.80293457 -299.58296875 349.60586914 -300.3984375 349.40283203 C-302.26610539 348.93714379 -304.13313037 348.46887814 -306 348 Z M-311 520 C-318.85489247 530.94691616 -320.85520262 540.69502079 -320 554 C-319.67 554.66 -319.34 555.32 -319 556 C-315.11020885 554.52456198 -313.90288689 552.63324537 -312 549 C-311.0859375 546.02734375 -311.0859375 546.02734375 -310.375 542.9375 C-310.13523437 541.91527344 -309.89546875 540.89304687 -309.6484375 539.83984375 C-309.43445313 538.90269531 -309.22046875 537.96554687 -309 537 C-308.67028826 535.66576649 -308.33859188 534.33200767 -308 533 C-307.67 533.33 -307.34 533.66 -307 534 C-307.12257085 535.77516397 -307.25221012 537.55017989 -307.42114258 539.3215332 C-308.67949691 552.76859394 -308.67949691 552.76859394 -305 559 C-302.8125 561.0625 -302.8125 561.0625 -301 562 C-296.64976915 560.31922899 -294.04124114 558.58328817 -291.87890625 554.3671875 C-289.47971785 547.9053734 -288 540.88643277 -288 534 C-287.34 534 -286.68 534 -286 534 C-285.98130859 534.30873047 -285.98130859 534.30873047 -285.88671875 535.87109375 C-285.41276584 541.9767224 -284.19399627 547.28733047 -282 553 C-277.84479056 551.25777382 -276.65203858 549.33503888 -274.82421875 545.33984375 C-272.33659406 538.27781917 -272.43394228 531.01557653 -275 524 C-277.79627444 518.27526361 -281.1853531 513.90732345 -287 511 C-296.52043288 509.92054571 -304.49898669 512.77665187 -311 520 Z M-188.69921875 516.953125 C-194.29263435 524.69993789 -195.65782032 531.92716583 -194.546875 541.34375 C-193.42759036 546.7802754 -191.65659121 550.89560586 -187 554 C-184.20878312 551.20878312 -184.3412583 548.25670769 -183.9375 544.5 C-183.11548913 537.23097826 -183.11548913 537.23097826 -182 535 C-181.87882812 535.57878906 -181.87882812 535.57878906 -181.265625 538.5078125 C-180.92774986 540.04702146 -180.58917075 541.58607601 -180.25 543.125 C-180.09273438 543.88554688 -179.93546875 544.64609375 -179.7734375 545.4296875 C-178.34916865 551.78411773 -176.21730893 556.2804543 -170.9375 560.375 C-168 562 -168 562 -165 562 C-160.77588351 552.84774762 -161.49519942 543.78120375 -163 534 C-160.05897327 538.52401562 -158.6591137 543.01438458 -157.16015625 548.16015625 C-155.90428591 551.23429005 -154.48390392 552.83760348 -152 555 C-151.01 554.67 -150.02 554.34 -149 554 C-148.40489798 541.75081673 -149.25155022 531.74556099 -157.29296875 521.8515625 C-162.82168638 515.85473834 -167.55617332 511.43004774 -175.875 510.625 C-181.36858107 510.82119932 -185.14728569 512.87044332 -188.69921875 516.953125 Z " fill="#000000" transform="translate(597,72)"/>
<path d="M0 0 C4 1 4 1 4 1 Z " fill="#000000" transform="translate(210,243)"/>
<path d="M0 0 C0.598125 0.20625 1.19625 0.4125 1.8125 0.625 C-0.4975 0.955 -2.8075 1.285 -5.1875 1.625 C-2.1875 -0.375 -2.1875 -0.375 0 0 Z " fill="#000000" transform="translate(516.1875,244.375)"/>
<path d="M0 0 C4.23473483 3.46478304 6.24593156 6.83011407 8 12 C8.04548114 13.66604599 8.05419507 15.3342147 8 17 C7.18917969 16.65066406 6.37835938 16.30132812 5.54296875 15.94140625 C-6.24157317 11.09863175 -16.51222263 9.28677761 -28.625 14.02734375 C-30.77674205 14.97209299 -32.89631164 15.95323719 -35 17 C-33.73297279 9.77794488 -31.25729329 5.03435591 -25.19140625 0.7109375 C-17.06012057 -4.15034727 -8.35805495 -4.66122295 0 0 Z M-28 6.25 C-28.66 7.1575 -29.32 8.065 -30 9 C-26.63496739 10.12167754 -26.25996556 9.81911445 -23 9 C-12.92924955 8.35538743 -4.27554502 8.5124793 5 13 C4.54655595 8.12547646 3.52912227 5.43625063 0 2 C-9.56732319 -3.54904745 -20.73115425 -2.34230506 -28 6.25 Z " fill="#000000" transform="translate(304,251)"/>
<path d="M0 0 C4.88519971 2.71570944 8.1525773 6.04655077 10.75 11 C11.625 14.5 11.625 14.5 11.75 17 C11.1415625 16.71125 10.533125 16.4225 9.90625 16.125 C0.09352221 11.96902117 -11.01032672 10.92544838 -21.0625 14.9375 C-22.46511945 15.61104704 -23.8622877 16.29625181 -25.25 17 C-26.24 17.33 -27.23 17.66 -28.25 18 C-28.58 17.67 -28.91 17.34 -29.25 17 C-28.95266414 11.15239473 -28.12414701 7.60709374 -24.25 3 C-16.61807055 -2.7628855 -8.83047002 -3.9810591 0 0 Z M-24.6875 6.4375 C-26.27470225 9.04051169 -26.90589621 10.98909181 -27.25 14 C-26.64671875 13.79503906 -26.0434375 13.59007812 -25.421875 13.37890625 C-24.62265625 13.10949219 -23.8234375 12.84007812 -23 12.5625 C-22.21109375 12.29566406 -21.4221875 12.02882813 -20.609375 11.75390625 C-19.83078125 11.50511719 -19.0521875 11.25632812 -18.25 11 C-17.95287109 10.90267578 -17.95287109 10.90267578 -16.44921875 10.41015625 C-13.08396207 9.78253289 -9.72251897 9.85634903 -6.3125 9.875 C-5.60931641 9.87113281 -4.90613281 9.86726563 -4.18164062 9.86328125 C-0.41187488 9.87034735 3.08593938 10.096533 6.75 11 C5.55838951 6.36595919 3.28344734 4.5951822 -0.49609375 2.015625 C-8.832618 -2.81176098 -18.2448927 -0.0051073 -24.6875 6.4375 Z " fill="#000000" transform="translate(442.25,250)"/>
<path d="M0 0 C6.89098001 4.70233541 11.338972 10.57233743 15 18 C15.3403125 18.66128906 15.680625 19.32257813 16.03125 20.00390625 C19.72184587 28.73489927 19.66564889 41.62211354 16.5 50.5 C11.45250349 60.66509713 4.82506708 67.28188444 -6 71 C-15.36915304 73.13458193 -24.70179525 71.8066768 -33.125 67.1875 C-41.62950104 61.80131601 -46.88509212 54.64866396 -49.4921875 44.89453125 C-51.73866495 32.0896098 -49.81973789 20.55955029 -42.8125 9.625 C-32.43039799 -4.16615042 -15.21105756 -7.87238944 0 0 Z M-37.72265625 11.88671875 C-45.20799006 21.24798389 -45.99917453 30.4300131 -45 42 C-43.15685979 50.98530852 -38.89366316 57.6042486 -31.37109375 62.82421875 C-23.73598235 67.18568718 -16.69328616 68.37262413 -8 67 C-0.74177513 64.53548956 5.65894067 60.39735059 10 54 C9.67 53.34 9.34 52.68 9 52 C8.29875 52.598125 7.5975 53.19625 6.875 53.8125 C-0.3703341 59.3252542 -7.08084038 60.75221828 -16 60 C-23.39883373 58.22844826 -29.71398922 54.35511943 -34 48 C-37.79385167 39.99075758 -39.4289144 33.00867523 -36.75 24.375 C-33.98018554 16.85508318 -29.94646602 12.17458332 -22.9375 8.3125 C-17.9548985 6.08623125 -13.67470544 5.87084483 -8.25 5.9375 C-7.55261719 5.94201172 -6.85523438 5.94652344 -6.13671875 5.95117188 C-4.42444197 5.9628998 -2.71220967 5.98083347 -1 6 C-4.70858709 1.80918177 -9.54192287 1.2671823 -14.875 0.6875 C-24.17571879 1.61757188 -31.40742725 4.97003937 -37.72265625 11.88671875 Z M-30 16 C-34.65732456 23.27706963 -36.91911169 29.29991534 -36 38 C-33.55249475 46.05267272 -29.32073773 51.75397212 -22 56 C-16.15532452 58.65667067 -9.73108844 59.10794761 -3.56640625 57.27734375 C3.89628902 54.16893611 8.81030753 50.30169592 12.23828125 42.8671875 C14.555458 37.18713371 15.0471376 31.44524546 13.24609375 25.51953125 C9.81044225 17.4760648 5.3258467 12.42083941 -2.75 8.75 C-12.84935773 6.41937898 -22.5937363 8.38800676 -30 16 Z " fill="#000000" transform="translate(305,291)"/>
<path d="M0 0 C9.54087285 7.12068076 15.79176101 15.18848913 18 27 C19.15220816 38.64835102 17.13404686 49.42804343 9.9453125 58.8125 C3.19751755 66.40038187 -5.46216792 70.60667318 -15.5 71.9375 C-24.90457161 72.46733502 -32.87749991 69.02883405 -40 63 C-48.35276514 54.34958622 -51.09998372 43.79807927 -51 32 C-50.31206285 21.31501867 -45.93386987 10.73975617 -37.9296875 3.46484375 C-26.7783309 -5.00025488 -12.4829072 -7.53418185 0 0 Z M-31 6 C-30.04480469 5.95359375 -29.08960938 5.9071875 -28.10546875 5.859375 C-18.38051374 5.58789071 -9.79466012 6.23088705 -1.625 12.1875 C4.71272016 18.97791445 7.38966103 26.08560311 7.28125 35.2734375 C6.5384063 42.47489446 3.27050349 49.073225 -2 54 C-9.60384942 58.48432145 -16.13270103 60.90507603 -25 60 C-30.80244969 58.43512038 -35.91159432 56.18824701 -41 53 C-38.3407708 59.52719895 -33.0254075 62.93251982 -27 66 C-19.39600731 68.36742865 -11.51852294 67.59287342 -4.34765625 64.30859375 C4.21038141 59.53830653 8.43921792 53.04364721 12 44 C14.38350631 34.52410908 13.35769208 25.71538416 9 17 C4.11021446 8.84191221 -2.09793822 4.2038861 -11.25 1.6875 C-18.09982246 0.43169922 -25.77920948 0.77920948 -31 6 Z M-40 17 C-40.721875 17.804375 -41.44375 18.60875 -42.1875 19.4375 C-46.23111206 25.15433085 -46.8321083 31.17876653 -46 38 C-43.46881978 46.64705891 -38.37584043 51.36816036 -30.8671875 55.984375 C-25.80337895 58.73874785 -20.60196476 58.72306061 -15 58 C-6.97839409 55.32941622 -1.06527918 51.49346237 3 44 C5.74778133 38.25463903 6.11162066 31.62136216 4.2421875 25.53125 C0.71575825 17.20110217 -3.79555023 12.75555799 -12 9 C-22.29789041 5.83906453 -33.07518226 8.64948449 -40 17 Z " fill="#000000" transform="translate(453,291)"/>
<path d="M0 0 C0.66 0.66 1.32 1.32 2 2 C1.92246387 6.1869509 1.66866707 8.29418476 -1.25 11.375 C-3.94257098 12.96606467 -5.91482939 13.64740907 -9 14 C-6.88238276 9.98767259 -4.5433614 7.77722921 -1 5 C-1 4.34 -1 3.68 -1 3 C-7.51724153 -1.52586217 -14.24250878 -1.76384504 -22 -1 C-24.94973187 0.05875956 -27.28475136 1.39096377 -30 3 C-30.66 3 -31.32 3 -32 3 C-31.2575 3.7425 -30.515 4.485 -29.75 5.25 C-27.5 7.5 -25.25 9.75 -23 12 C-23.99 12.33 -24.98 12.66 -26 13 C-29.07580826 11.46209587 -31.9534586 9.80053033 -34 7 C-34.5625 4.5625 -34.5625 4.5625 -34 2 C-24.18103837 -6.38204042 -10.89583135 -5.84238315 0 0 Z " fill="#000000" transform="translate(379,340)"/>
<path d="M0 0 C0.66 0.33 1.32 0.66 2 1 C1.67 2.98 1.34 4.96 1 7 C16.31496608 15.25331025 29.49086809 18.3969974 46.875 13.98828125 C52.62590719 12.16955685 59.12193359 9.8569958 63 5 C62.6875 2.3125 62.6875 2.3125 62 0 C64.9375 1.125 64.9375 1.125 68 3 C68.875 6.1875 68.875 6.1875 69 9 C68.09507812 9.49628906 67.19015625 9.99257813 66.2578125 10.50390625 C62.26475269 13.16868163 60.77535239 16.64802146 58.875 20.9375 C53.65005731 32.3841114 53.65005731 32.3841114 48.4375 35.5625 C43.86323268 36.14467948 40.9659284 34.60508274 36.7578125 32.90234375 C32.68098597 31.56842459 30.13373463 31.96656634 26 33 C25.01 33.66 24.02 34.32 23 35 C18.97007719 35.45621768 16.59852487 35.29315504 12.9375 33.5 C6.99037319 28.43861548 3.89583556 23.3547834 1.70703125 15.91796875 C0.73151378 13.2716755 -0.48363879 12.22005392 -3 11 C-5.25 10.3125 -5.25 10.3125 -7 10 C-6.84518205 7.29068581 -6.51827919 5.53415961 -4.59765625 3.5546875 C-3.10228292 2.32320358 -1.5537076 1.1570163 0 0 Z M6 15 C6.44469329 20.03985731 8.71343362 22.37634988 12 26 C14.94956528 24.63055898 17.52468811 23.12169591 20 21 C20 20.34 20 19.68 20 19 C18.23141309 18.32739649 16.46003984 17.66211605 14.6875 17 C13.70136719 16.62875 12.71523438 16.2575 11.69921875 15.875 C9 15 9 15 6 15 Z M48.375 17 C47.37210937 17.37125 46.36921875 17.7425 45.3359375 18.125 C44.56507813 18.41375 43.79421875 18.7025 43 19 C45.71327575 21.84364336 48.69589177 23.87068581 52 26 C52.67408308 24.73308493 53.33900497 23.46129251 54 22.1875 C54.37125 21.47980469 54.7425 20.77210938 55.125 20.04296875 C56 18 56 18 56 15 C53.18856084 15 51.0042796 16.0216634 48.375 17 Z M15 27 C16.75 30.875 16.75 30.875 19 32 C20.8828125 31.44140625 20.8828125 31.44140625 23.125 30.5625 C30.0415071 28.16108873 35.44540793 28.3289603 42.140625 31.44140625 C44.43210769 32.12981386 45.76209417 31.74761898 48 31 C48 27 48 27 45.8125 24.375 C40.76583554 20.11337224 36.29350029 19.56274932 29.859375 19.67578125 C23.97936017 20.34250424 19.00407635 22.63305423 15 27 Z " fill="#000000" transform="translate(332,358)"/>
<path d="M0 0 C0.33 0.165 0.33 0.165 2 1 C1.06800781 1.65484375 0.13601562 2.3096875 -0.82421875 2.984375 C-31.91336607 25.12112857 -50.6668419 54.57482352 -68 88 C-69 85 -69 85 -68.03125 82.5390625 C-67.5259375 81.57742188 -67.020625 80.61578125 -66.5 79.625 C-65.94183594 78.55636719 -65.38367188 77.48773438 -64.80859375 76.38671875 C-64.21175781 75.26910156 -63.61492187 74.15148437 -63 73 C-62.43410156 71.91332031 -61.86820312 70.82664062 -61.28515625 69.70703125 C-51.01598584 50.21656496 -38.53255886 33.53255886 -23 18 C-22.49597656 17.44957031 -21.99195313 16.89914062 -21.47265625 16.33203125 C-15.59339719 9.99676318 -7.74869604 3.87434802 0 0 Z " fill="#000000" transform="translate(154,394)"/>
<path d="M0 0 C0.33 0.165 0.33 0.165 2 1 C1.67 1.66 1.34 2.32 1 3 C0.67 2.01 0.34 1.02 0 0 Z " fill="#000000" transform="translate(679,428)"/>
<path d="M0 0 C0.33 0.165 0.33 0.165 2 1 C1.67 1.66 1.34 2.32 1 3 C0.67 2.01 0.34 1.02 0 0 Z " fill="#000000" transform="translate(473,457)"/>
<path d="M0 0 C0.33 0.165 0.33 0.165 2 1 C1.67 1.66 1.34 2.32 1 3 C0.67 2.01 0.34 1.02 0 0 Z " fill="#000000" transform="translate(476,461)"/>
</svg>
